<svg xmlns="http://www.w3.org/2000/svg" width="200" height="112" viewBox="0 0 200 112"><g fill="none" fill-rule="evenodd"><path fill="#F90" stroke="#960042" stroke-linecap="round" stroke-linejoin="round" stroke-width="5.79" d="M55.63 23.33c4.7-4.84 11.26-7.85 18.53-7.85 14.26 0 25.82 11.57 25.82 25.83 0 7.32-3.03 13.92-7.92 18.62L55.62 96.36l-36.5-36.5L55.6 23.3z"/><path fill="#FF0032" stroke="#960042" stroke-linecap="round" stroke-linejoin="round" stroke-width="5.79" d="M62.46 46.9l29.8 12.84-36.53 36.52L42.95 66.6c-1.85.4-3.76.63-5.73.63-14.26 0-25.83-11.56-25.83-25.83 0-14.26 11.56-25.82 25.82-25.82S63.04 27.14 63.04 41.4c0 1.9-.2 3.73-.58 5.5z"/><path fill="#960042" d="M123.58 80.42c-.88 0-1.75-.14-2.6-.42-.83-.28-1.56-.68-2.16-1.2l1-1.7c.65.46 1.27.8 1.88 1.04.6.24 1.22.35 1.82.35.54 0 .96-.1 1.27-.3.3-.2.45-.5.45-.87 0-.38-.18-.65-.54-.82-.35-.17-.94-.37-1.76-.6-.68-.18-1.27-.36-1.75-.54-.5-.17-.88-.37-1.17-.6-.3-.2-.5-.47-.65-.75-.13-.28-.2-.63-.2-1.03 0-.53.1-1.02.3-1.44.22-.43.5-.8.9-1.1.36-.3.8-.53 1.3-.7.5-.15 1.05-.23 1.64-.23.8 0 1.53.1 2.22.34.7.23 1.32.6 1.9 1.1l-1.08 1.63c-.54-.4-1.06-.7-1.56-.88-.5-.2-1-.3-1.5-.3-.45 0-.84.1-1.14.3-.3.17-.47.47-.47.9 0 .18.03.33.1.45.08.12.2.23.36.32.16.1.37.2.63.27.25.1.57.18.96.28.73.18 1.35.37 1.86.56.52.2.94.4 1.27.64.32.24.56.52.7.83.17.32.24.7.24 1.14 0 1.02-.38 1.83-1.14 2.43-.77.6-1.8.9-3.12.9zm10.87 0c-.85 0-1.62-.15-2.3-.44-.7-.3-1.27-.7-1.75-1.2-.47-.5-.84-1.08-1.1-1.73-.25-.66-.37-1.35-.37-2.07 0-.74.12-1.43.38-2.1.26-.64.63-1.22 1.1-1.73.48-.5 1.06-.9 1.74-1.2.7-.3 1.46-.43 2.3-.43.87 0 1.64.14 2.3.44.7.3 1.27.7 1.74 1.2.48.5.84 1.08 1.1 1.73.25.65.38 1.34.38 2.08 0 .72-.13 1.4-.38 2.07-.26.65-.62 1.23-1.1 1.74-.46.5-1.03.9-1.72 1.18-.68.3-1.45.44-2.3.44zm-2.75-5.44c0 .47.07.9.2 1.28.15.38.35.7.6 1 .24.27.53.5.87.64.33.16.7.23 1.08.23.4 0 .75-.07 1.1-.23.32-.15.6-.37.86-.65s.45-.62.6-1c.14-.4.2-.82.2-1.3 0-.45-.06-.87-.2-1.26-.15-.4-.34-.73-.6-1-.24-.3-.53-.5-.86-.66-.34-.16-.7-.23-1.1-.23-.38 0-.74.1-1.07.25-.34.16-.63.38-.88.66-.25.3-.45.63-.6 1-.13.4-.2.82-.2 1.28zm13.28 5.44c-1.08 0-1.9-.35-2.47-1.04-.55-.7-.83-1.73-.83-3.1V69.7h2.7v6c0 1.62.57 2.43 1.74 2.43.53 0 1.04-.15 1.52-.47.5-.3.9-.8 1.2-1.44V69.7h2.7v7.43c0 .28.04.48.14.6s.27.2.5.2v2.3l-.68.1h-.5c-.47 0-.86-.1-1.17-.32-.3-.2-.46-.52-.52-.9l-.06-.85c-.47.73-1.07 1.27-1.8 1.63-.74.36-1.55.54-2.44.54zm15.47-8.4c-.8.02-1.54.18-2.2.48-.63.3-1.1.75-1.37 1.36v6.36h-2.7V69.7h2.48v2.25c.18-.36.4-.7.66-.98.25-.28.53-.54.82-.75.3-.2.6-.38.9-.5.3-.1.6-.16.87-.16h.34c.08 0 .15 0 .2.02v2.45zm.32 2.94c0-.74.13-1.43.4-2.1.24-.64.6-1.22 1.1-1.72.47-.5 1.06-.9 1.74-1.18.7-.3 1.46-.44 2.32-.44 1.15 0 2.13.24 2.94.74.8.5 1.42 1.15 1.82 1.95l-2.63.8c-.23-.38-.53-.67-.9-.88-.38-.2-.8-.3-1.25-.3-.4 0-.75.06-1.08.22-.34.15-.63.37-.88.64s-.44.6-.58 1c-.14.38-.2.8-.2 1.28 0 .47.06.9.2 1.28.16.4.35.73.6 1 .25.3.54.5.88.66.33.16.7.23 1.06.23.48 0 .93-.12 1.34-.36.4-.24.7-.53.85-.88l2.62.8c-.36.8-.95 1.45-1.8 1.96-.82.5-1.8.76-2.98.76-.86 0-1.63-.15-2.3-.44-.7-.3-1.28-.7-1.76-1.2s-.85-1.08-1.1-1.74c-.27-.66-.4-1.36-.4-2.08zm16.78 5.46c-.84 0-1.6-.14-2.3-.43-.67-.3-1.25-.7-1.74-1.18-.47-.5-.84-1.08-1.1-1.73-.26-.67-.4-1.36-.4-2.08 0-.75.13-1.46.4-2.12.24-.66.6-1.24 1.1-1.75.48-.5 1.06-.9 1.75-1.2.7-.3 1.47-.43 2.32-.43.86 0 1.63.14 2.3.44.68.3 1.26.7 1.73 1.18.48.5.84 1.08 1.1 1.73.23.66.36 1.34.36 2.05v.5l-.06.4h-8.14c.04.42.14.8.3 1.1.16.33.37.6.62.83.26.23.55.4.87.52.32.12.66.18 1 .18.54 0 1.04-.13 1.52-.4.48-.25.8-.6.97-1.02l2.32.64c-.4.8-1 1.46-1.86 1.98-.85.5-1.87.77-3.05.77zm2.74-6.34c-.08-.8-.37-1.43-.9-1.9-.5-.48-1.13-.7-1.87-.7-.36 0-.7.05-1 .18-.33.12-.6.3-.85.53-.24.22-.43.5-.6.8-.14.33-.23.7-.26 1.08h5.47zM124.46 61.1c-.86 0-1.63-.14-2.3-.43-.7-.3-1.28-.7-1.75-1.2-.48-.5-.84-1.08-1.1-1.73-.25-.66-.38-1.35-.38-2.07 0-.74.13-1.43.38-2.1.26-.65.62-1.22 1.1-1.73.47-.5 1.05-.9 1.74-1.2.68-.3 1.45-.43 2.3-.43.86 0 1.63.15 2.3.45.68.3 1.26.7 1.74 1.2.47.5.84 1.07 1.1 1.73.24.66.37 1.35.37 2.1 0 .7-.13 1.4-.38 2.06-.26.65-.63 1.23-1.1 1.74-.46.5-1.04.9-1.72 1.2-.7.28-1.46.43-2.3.43zm-2.76-5.43c0 .47.08.9.22 1.27.15.4.34.72.6 1 .24.28.53.5.86.65.34.15.7.22 1.1.22.38 0 .74-.07 1.07-.23.34-.16.63-.38.88-.66.24-.28.44-.62.58-1 .15-.4.22-.82.22-1.3 0-.45-.07-.87-.2-1.26-.15-.38-.35-.72-.6-1-.24-.28-.53-.5-.87-.65-.33-.16-.7-.23-1.08-.23-.4 0-.75.08-1.1.24-.32.16-.6.38-.86.66-.24.28-.43.62-.58 1-.14.4-.2.8-.2 1.27zm16.4 5.44c-.84 0-1.56-.17-2.18-.54-.62-.37-1.1-.87-1.45-1.5v6.13h-2.7V50.4h2.36v1.8c.4-.62.9-1.1 1.5-1.46.62-.36 1.33-.53 2.14-.53.7 0 1.36.15 1.97.44.6.3 1.12.67 1.55 1.16.43.5.77 1.07 1.02 1.73.25.66.37 1.36.37 2.1 0 .76-.12 1.48-.35 2.15-.23.67-.55 1.25-.95 1.75-.4.5-.9.88-1.46 1.16-.56.27-1.18.4-1.85.4zm-.9-2.28c.4 0 .76-.08 1.1-.26.34-.17.63-.4.87-.7.25-.3.43-.64.57-1.03.13-.38.2-.8.2-1.2 0-.44-.08-.85-.22-1.24-.15-.4-.35-.72-.62-1-.26-.28-.56-.5-.92-.66-.35-.16-.74-.24-1.16-.24-.25 0-.5.04-.78.13-.27.08-.5.2-.74.37-.23.16-.43.35-.62.56-.18.2-.3.45-.4.7v2.47c.23.6.6 1.1 1.1 1.5.5.4 1.03.6 1.6.6zm12.2 2.3c-.84 0-1.6-.15-2.3-.44-.67-.3-1.25-.68-1.74-1.17-.48-.5-.85-1.07-1.1-1.72-.27-.66-.4-1.35-.4-2.07 0-.74.12-1.45.38-2.1.25-.67.62-1.25 1.1-1.76.5-.5 1.07-.9 1.76-1.2.7-.3 1.47-.43 2.32-.43.86 0 1.63.15 2.3.45.68.3 1.26.7 1.73 1.18.48.5.84 1.07 1.1 1.73.23.66.36 1.34.36 2.05v.5c0 .17-.03.3-.05.4h-8.14c.05.43.15.8.3 1.12.17.32.38.6.63.82.26.23.55.4.87.52.32.12.65.18 1 .18.54 0 1.04-.13 1.52-.4.48-.25.8-.6.97-1.02l2.3.64c-.38.8-1 1.46-1.85 1.98-.85.5-1.87.77-3.05.77zm2.73-6.35c-.06-.8-.35-1.43-.87-1.9-.5-.48-1.14-.72-1.88-.72-.36 0-.7.07-1 .2-.33.12-.6.3-.85.53-.24.23-.44.5-.6.82-.14.32-.23.68-.26 1.07h5.46zm14.2 6.14h-2.68V55c0-.84-.15-1.45-.44-1.84-.3-.4-.7-.58-1.22-.58-.27 0-.54.05-.82.16-.28.1-.55.26-.8.45-.24.18-.47.4-.67.68-.2.27-.36.56-.45.9v6.13h-2.7V50.4H159v1.94c.38-.67.94-1.2 1.67-1.57.74-.38 1.57-.56 2.5-.56.65 0 1.2.13 1.6.37.42.24.74.55.97.94.23.4.38.84.47 1.34.1.5.14 1 .14 1.5v6.57z"/><path fill="#FF0032" d="M119.58 84.87h2.7v11.3c0 .38.1.68.28.9.2.2.45.3.8.3.16 0 .34 0 .53-.07.2-.05.37-.12.55-.2l.36 2.05c-.35.17-.78.3-1.26.4-.48.1-.92.14-1.3.14-.85 0-1.5-.23-1.96-.68-.47-.45-.7-1.1-.7-1.92V84.87zm11.26 14.86c-.86 0-1.63-.14-2.3-.44-.7-.3-1.28-.7-1.75-1.2-.5-.5-.85-1.1-1.1-1.74-.26-.66-.4-1.35-.4-2.07 0-.75.14-1.44.4-2.1.25-.65.6-1.23 1.1-1.74.46-.5 1.04-.9 1.73-1.2.68-.3 1.45-.43 2.3-.43.86 0 1.63.14 2.3.44.68.3 1.26.7 1.73 1.2.48.5.85 1.08 1.1 1.73.25.66.38 1.35.38 2.1 0 .7-.13 1.4-.38 2.06-.25.65-.62 1.23-1.1 1.74-.45.5-1.03.9-1.7 1.2-.7.3-1.47.43-2.32.43zm-2.76-5.44c0 .46.07.88.2 1.27.15.38.35.7.6 1 .24.27.54.5.87.64.34.17.7.24 1.1.24.37 0 .74-.07 1.07-.23.34-.14.63-.36.88-.64.24-.28.44-.62.58-1 .14-.4.2-.82.2-1.3 0-.45-.06-.87-.2-1.26-.14-.38-.34-.72-.58-1-.25-.28-.54-.5-.88-.65-.33-.16-.7-.23-1.08-.23-.4 0-.75.08-1.1.24-.32.16-.62.38-.86.66-.25.28-.45.62-.6 1-.13.4-.2.8-.2 1.27zm12.52 5.23L136.72 89h2.78l2.67 8.34 2.7-8.33h2.52l-3.9 10.53h-2.9zm12.72.2c-.84 0-1.6-.14-2.3-.43-.67-.3-1.26-.68-1.74-1.17-.48-.5-.85-1.08-1.1-1.73-.27-.66-.4-1.35-.4-2.07 0-.75.12-1.46.38-2.12.25-.65.62-1.23 1.1-1.74.48-.5 1.07-.9 1.76-1.2.7-.3 1.46-.43 2.32-.43.86 0 1.62.14 2.3.44.68.3 1.25.7 1.73 1.18.47.5.84 1.08 1.08 1.73.25.66.38 1.34.38 2.05v.5l-.06.4h-8.14c.04.42.14.8.3 1.1.16.33.37.6.62.83.26.23.54.4.87.52.32.12.65.18 1 .18.54 0 1.04-.13 1.52-.4.47-.25.8-.6.97-1.02l2.32.64c-.4.8-1 1.46-1.86 1.98-.85.5-1.86.77-3.04.77zm2.73-6.34c-.06-.8-.36-1.44-.87-1.9-.52-.5-1.14-.72-1.88-.72-.36 0-.7.06-1 .2-.33.1-.6.3-.85.52-.24.23-.44.5-.6.82-.15.32-.24.68-.26 1.07h5.45z"/></g></svg>