<svg xmlns="http://www.w3.org/2000/svg" width="112" height="112" viewBox="0 0 112 112"><path fill="#960042" fill-rule="evenodd" d="M45.7 80.3l-.85-1.97-1.58 1.58 1.4 1.43 1.03-1.02zm.85 1.98l-.46.47 1.16 1.17-.7-1.64zM44 76.35l-.85-1.97-2.7 2.7 1.4 1.4L44 76.36zm-1.7-3.95l-.86-1.98-3.8 3.82 1.4 1.42 3.26-3.26zm-3.33-2.33c-.58.04-1.17.05-1.75.05-.37 0-.74 0-1.1-.02l-1.32 1.3 1.4 1.43 2.77-2.76zm-5.47-.2c-.08 0-.17 0-.25-.02l.14.14.1-.12zM88.32 54.9l8.1-8.12c.3-1.2.5-2.4.6-3.64L86.18 53.97l2.14.92zm1.98.84l1.24.53c1.33-1.55 2.45-3.26 3.33-5.1l-4.57 4.57zm-6.1-2.62l12.86-12.86c-.03-.87-.12-1.73-.26-2.57L82.23 52.25l1.98.86zm-3.95-1.7L96.3 35.35c-.2-.73-.42-1.44-.68-2.14L78.28 50.56l1.97.85zm-3.95-1.7l18.47-18.48c-.3-.62-.64-1.23-1-1.82L74.32 48.86l1.98.85zM72.35 48l20.28-20.3c-.4-.54-.82-1.06-1.26-1.56l-21 21 1.98.85zM68.4 46.3l21.58-21.6c-.48-.45-.98-.9-1.5-1.3L66.4 45.44l1.97.85zm-2.5-3.15L86.83 22.2c-.57-.38-1.16-.73-1.77-1.06L65.92 40.3l.02 1.1c0 .6-.02 1.17-.05 1.75zm-.2-5.46l17.54-17.45c-.7-.3-1.43-.58-2.17-.8l-15.8 15.82c.2.8.33 1.6.43 2.42zm-1-4.67l14.16-14.17c-.8-.16-1.62-.3-2.45-.37L63.98 30.92c.27.7.5 1.4.73 2.1zm-1.6-4.07L73.7 18.4c-1.13 0-2.25.1-3.34.3l-8.2 8.4c.34.6.67 1.23.97 1.86zm-2.05-3.6l5.8-5.78c-2.6.87-5.03 2.2-7.16 3.94.47.6.92 1.2 1.35 1.84zm33.12 36.56l-36.4 36.4c-.02 0-.04.03-.06.06l-.03.03c-1.13 1.14-2.96 1.14-4.1 0l-36.5-36.5c-.1-.1-.2-.2-.27-.3-5.13-5.18-8.3-12.32-8.3-20.2 0-15.86 12.86-28.7 28.72-28.7 7 0 13.43 2.5 18.4 6.66 5.13-4.33 11.65-6.77 18.54-6.77 15.86 0 28.72 12.85 28.72 28.7 0 7.88-3.18 15.25-8.7 20.62zm-19.92-6.8L61.3 49.57c-.62-.28-1.12-.76-1.42-1.34-.3-.58-.4-1.26-.25-1.93.17-.8.3-1.62.4-2.43.07-.8.12-1.64.12-2.47 0-3.04-.6-6-1.72-8.7-3.5-8.4-11.68-14.22-21.2-14.22-12.67 0-22.94 10.26-22.94 22.92 0 12.67 10.26 22.93 22.92 22.93 1.73 0 3.43-.2 5.1-.57 1.35-.3 2.73.4 3.3 1.68L56.7 91.2l30.5-30.5-12.95-5.57z"/></svg>