<svg xmlns="http://www.w3.org/2000/svg" width="112" height="112" viewBox="0 0 112 112"><g fill="none" fill-rule="evenodd" stroke="#960042" stroke-linecap="round" stroke-linejoin="round" stroke-width="5.79"><path fill="#F90" d="M55.63 23.33c4.7-4.84 11.26-7.85 18.53-7.85 14.26 0 25.82 11.57 25.82 25.83 0 7.32-3.03 13.92-7.92 18.62L55.62 96.36l-36.5-36.5L55.6 23.3z"/><path fill="#FF0032" d="M62.46 46.9l29.8 12.84-36.53 36.52L42.95 66.6c-1.85.4-3.76.63-5.73.63-14.26 0-25.83-11.56-25.83-25.83 0-14.26 11.56-25.82 25.82-25.82S63.04 27.14 63.04 41.4c0 1.9-.2 3.73-.58 5.5z"/></g></svg>