<svg xmlns="http://www.w3.org/2000/svg" width="132" height="56" viewBox="0 0 132 56"><g fill="none" fill-rule="evenodd"><path fill="#F90" stroke="#960042" stroke-linecap="round" stroke-linejoin="round" stroke-width="2.9" d="M31.82 11.66c2.34-2.42 5.63-3.92 9.26-3.92 7.13 0 12.9 5.78 12.9 12.9 0 3.67-1.5 6.97-3.95 9.32L31.8 48.18 13.56 29.92 31.8 11.66h.02z"/><path fill="#FF0032" stroke="#960042" stroke-linecap="round" stroke-linejoin="round" stroke-width="2.9" d="M35.23 23.45l14.9 6.42-18.27 18.26-6.4-14.84c-.9.2-1.87.3-2.85.3-7.12 0-12.9-5.77-12.9-12.9 0-7.13 5.78-12.9 12.9-12.9 7.14 0 12.92 5.77 12.92 12.9 0 .95-.1 1.86-.3 2.75z"/><path fill="#960042" d="M70.9 32.77c-.77 0-1.53-.12-2.27-.37s-1.38-.6-1.9-1.06l.87-1.48c.57.4 1.12.7 1.65.9.54.2 1.07.3 1.6.3.47 0 .84-.07 1.12-.25.27-.17.4-.42.4-.75s-.16-.57-.48-.72c-.32-.16-.84-.33-1.56-.53-.6-.17-1.1-.33-1.54-.48-.42-.16-.76-.33-1.02-.52-.26-.2-.45-.42-.56-.67-.12-.26-.18-.56-.18-.92 0-.46.1-.88.27-1.26.2-.37.45-.7.78-.96.33-.27.72-.47 1.16-.6.44-.15.92-.22 1.44-.22.7 0 1.34.1 1.95.3.6.2 1.16.52 1.67.97l-.96 1.43c-.47-.35-.92-.6-1.37-.78-.44-.16-.88-.24-1.3-.24-.4 0-.75.08-1.02.24-.27.17-.4.43-.4.8 0 .16.03.3.1.4.06.1.16.2.3.3.14.07.33.15.56.23l.86.25c.64.16 1.18.33 1.64.5.45.16.82.34 1.1.56.3.22.5.46.65.74.13.28.2.6.2 1 0 .9-.34 1.62-1 2.15-.68.5-1.6.77-2.74.77zm9.56 0c-.75 0-1.43-.13-2.03-.4-.6-.25-1.1-.6-1.53-1.04-.42-.44-.74-.95-.96-1.53-.23-.57-.34-1.18-.34-1.82 0-.65.1-1.26.34-1.84.22-.57.54-1.08.96-1.52.42-.45.93-.8 1.53-1.06s1.28-.38 2.03-.38c.75 0 1.43.12 2.02.38.6.26 1.1.6 1.52 1.06.42.44.74.95.96 1.52.22.58.34 1.2.34 1.84 0 .64-.12 1.25-.34 1.82-.22.58-.54 1.1-.95 1.53-.4.44-.9.8-1.5 1.05-.6.26-1.3.4-2.04.4zm-2.42-4.8c0 .42.06.8.18 1.13.13.34.3.63.52.88.2.25.47.44.77.57.3.14.62.2.96.2.34 0 .66-.06.95-.2.3-.13.56-.32.78-.57.22-.25.4-.54.5-.88.14-.35.2-.72.2-1.14 0-.4-.06-.77-.2-1.1-.1-.35-.28-.65-.5-.9-.22-.24-.47-.43-.77-.57-.28-.14-.6-.2-.94-.2-.34 0-.66.06-.95.2-.3.14-.55.34-.76.6-.22.23-.4.53-.52.87-.12.34-.18.7-.18 1.1zm11.67 4.8c-.94 0-1.67-.3-2.16-.92-.5-.6-.74-1.52-.74-2.72v-5.8h2.36v5.3c0 1.4.52 2.13 1.54 2.13.46 0 .9-.14 1.33-.42.43-.28.78-.7 1.05-1.26v-5.75h2.37v6.54c0 .25.04.43.13.53.1.1.23.17.44.18v2c-.24.06-.44.1-.6.1l-.43.02c-.43 0-.78-.1-1.04-.3-.27-.2-.42-.45-.47-.8l-.06-.74c-.42.64-.94 1.12-1.6 1.43-.64.3-1.35.47-2.13.47zm13.6-7.4c-.7.03-1.35.16-1.92.43-.56.26-.97.66-1.22 1.2v5.6H97.8v-9.27h2.17v1.98c.17-.3.36-.6.58-.84.23-.26.47-.48.73-.67.26-.2.52-.34.78-.44.27-.1.52-.15.77-.15h.3l.18.03v2.15zm.3 2.6c0-.65.1-1.27.33-1.84.22-.58.54-1.1.97-1.52.42-.43.93-.78 1.53-1.04s1.28-.38 2.03-.38c1.02 0 1.88.2 2.6.65.7.43 1.24 1 1.6 1.7l-2.32.72c-.2-.34-.47-.6-.8-.8-.33-.17-.7-.26-1.1-.26-.34 0-.65.06-.95.2-.3.13-.56.32-.78.56-.2.24-.38.53-.5.87-.13.35-.2.72-.2 1.13 0 .42.07.8.2 1.14.13.34.3.63.52.88.22.25.48.44.77.57.3.14.62.2.95.2.42 0 .8-.1 1.17-.3.36-.22.6-.48.75-.8l2.3.72c-.3.7-.83 1.28-1.56 1.73-.72.45-1.6.67-2.62.67-.75 0-1.43-.13-2.03-.4-.6-.25-1.1-.6-1.54-1.04-.4-.44-.74-.95-.97-1.54-.23-.6-.34-1.2-.34-1.84zm14.73 4.8c-.74 0-1.4-.13-2-.38-.6-.26-1.12-.6-1.54-1.04-.44-.44-.77-.94-1-1.52-.22-.58-.34-1.2-.34-1.82 0-.66.1-1.28.34-1.87.22-.58.54-1.1.97-1.53.42-.45.94-.8 1.54-1.06.62-.26 1.3-.38 2.05-.38.76 0 1.43.12 2.02.38.6.26 1.1.6 1.52 1.05.4.44.73.95.95 1.53.2.57.32 1.17.32 1.8v.44c0 .14-.03.26-.05.35h-7.15c.03.37.12.7.26.98s.33.52.55.72c.22.2.48.35.76.46.28.1.58.16.88.16.47 0 .92-.12 1.34-.35.4-.23.7-.54.85-.92l2.04.57c-.34.7-.88 1.3-1.63 1.74-.74.44-1.63.67-2.67.67zm2.4-5.58c-.05-.7-.3-1.26-.76-1.68-.46-.42-1-.63-1.65-.63-.32 0-.62.05-.9.16-.27.1-.52.27-.73.47-.22.2-.4.44-.53.72-.13.28-.2.6-.24.94h4.8zM71.7 15.77c-.75 0-1.43-.13-2.03-.4-.6-.25-1.1-.6-1.53-1.04-.4-.44-.73-.95-.96-1.53-.22-.57-.33-1.17-.33-1.8 0-.66.1-1.27.33-1.85.23-.58.55-1.1.96-1.53.42-.44.93-.8 1.53-1.05.6-.26 1.28-.4 2.03-.4.76 0 1.43.14 2.02.4.6.26 1.1.6 1.52 1.05.42.44.74.95.97 1.53.2.58.32 1.2.32 1.84 0 .63-.1 1.23-.33 1.8-.24.6-.56 1.1-.97 1.54-.4.44-.92.8-1.52 1.05s-1.26.38-2.02.38zm-2.42-4.8c0 .42.07.8.2 1.13.1.35.28.64.5.9.22.23.47.42.77.56.3.14.6.2.95.2.34 0 .66-.06.96-.2.3-.14.55-.33.76-.57.22-.26.4-.56.52-.9.12-.34.18-.72.18-1.13 0-.4-.06-.77-.18-1.1-.13-.35-.3-.65-.52-.9-.2-.24-.47-.43-.76-.57-.3-.14-.62-.2-.96-.2-.34 0-.66.07-.95.2-.3.15-.55.34-.77.6-.22.24-.4.53-.5.88-.13.34-.2.7-.2 1.1zm14.4 4.8c-.74 0-1.37-.16-1.9-.5-.55-.3-.98-.75-1.28-1.3v5.4H78.1V6.33h2.08v1.6c.34-.55.78-.98 1.32-1.3.54-.3 1.17-.46 1.87-.46.63 0 1.2.13 1.73.38.53.26 1 .6 1.37 1.03.38.42.68.92.9 1.5.22.6.33 1.2.33 1.85 0 .68-.1 1.3-.3 1.9-.2.58-.48 1.1-.84 1.53-.36.44-.8.78-1.28 1.03-.5.25-1.04.38-1.63.38zm-.8-2.02c.35 0 .68-.07.98-.23.3-.15.56-.36.77-.6.22-.27.38-.57.5-.92.12-.33.18-.68.18-1.05 0-.4-.07-.75-.2-1.08-.12-.34-.3-.63-.53-.88-.23-.26-.5-.45-.82-.6-.3-.13-.65-.2-1-.2-.23 0-.46.04-.7.1-.24.1-.45.2-.65.34s-.38.3-.54.5c-.16.18-.28.4-.36.6v2.2c.2.52.53.95.97 1.3.43.35.9.52 1.4.52zm10.74 2.02c-.75 0-1.42-.13-2.02-.38-.6-.25-1.1-.6-1.53-1.04-.43-.43-.75-.94-.98-1.52-.23-.57-.35-1.18-.35-1.82 0-.66.1-1.28.34-1.86.22-.58.55-1.1.97-1.54.42-.44.94-.8 1.54-1.05.6-.26 1.3-.4 2.04-.4.77 0 1.44.14 2.04.4.6.26 1.1.6 1.5 1.04.43.45.75.96.97 1.53.23.58.33 1.18.33 1.8v.45c0 .14-.03.26-.05.35h-7.15c.04.37.12.7.26.97.14.3.32.53.54.73.23.2.48.35.76.46.28.1.58.15.88.15.48 0 .92-.12 1.34-.35.42-.23.7-.53.85-.9l2.03.56c-.34.7-.88 1.28-1.63 1.74-.75.45-1.64.68-2.67.68zm2.4-5.6c-.06-.68-.32-1.24-.77-1.66-.45-.4-1-.62-1.65-.62-.32 0-.62.05-.9.16-.27.12-.5.27-.73.47-.2.2-.38.44-.52.73-.13.28-.2.6-.24.93H96zm12.48 5.42h-2.36v-5.2c0-.74-.13-1.28-.4-1.62-.25-.34-.6-.5-1.07-.5-.24 0-.48.03-.72.13-.25.1-.48.24-.7.4-.22.18-.42.38-.6.62-.17.23-.3.5-.38.77v5.4h-2.37V6.34h2.14v1.72c.34-.6.83-1.05 1.48-1.38.65-.33 1.38-.5 2.2-.5.57 0 1.04.1 1.4.32.37.2.65.5.85.83.2.34.34.73.42 1.17.07.43.1.87.1 1.32v5.78z"/><path fill="#FF0032" d="M67.4 36.7h2.36v9.92c0 .34.08.6.25.8.17.18.4.28.7.28.15 0 .3-.03.48-.07.17-.05.33-.1.5-.18l.3 1.8c-.3.16-.7.27-1.1.36-.43.1-.82.13-1.16.13-.74 0-1.3-.2-1.72-.6-.4-.4-.6-.95-.6-1.68V36.7zm9.88 13.06c-.75 0-1.43-.12-2.03-.38-.6-.26-1.1-.6-1.53-1.06-.42-.44-.74-.95-.96-1.52-.22-.58-.34-1.2-.34-1.82 0-.65.12-1.27.34-1.84.22-.58.54-1.1.96-1.53.42-.43.93-.78 1.53-1.04s1.28-.4 2.03-.4c.75 0 1.43.14 2.02.4.6.26 1.1.6 1.52 1.05.42.45.74.96.96 1.54.23.57.34 1.2.34 1.84 0 .63-.1 1.24-.34 1.82-.22.57-.54 1.08-.95 1.52-.4.45-.92.8-1.52 1.06s-1.27.38-2.02.38zm-2.42-4.78c0 .4.06.78.2 1.12.1.33.28.62.5.87.22.25.47.44.77.58.3.13.6.2.95.2.34 0 .66-.07.95-.2.3-.14.55-.33.77-.58.22-.25.4-.54.5-.88.14-.35.2-.73.2-1.14 0-.4-.06-.77-.2-1.12-.1-.34-.28-.63-.5-.88-.22-.25-.47-.44-.77-.57-.3-.15-.6-.22-.95-.22-.34 0-.66.07-.95.22-.3.14-.55.33-.77.58-.22.25-.4.54-.5.88-.14.34-.2.7-.2 1.12zm11 4.6l-3.4-9.25h2.43l2.34 7.33 2.37-7.33h2.23l-3.4 9.26h-2.57zm11.18.18c-.74 0-1.4-.12-2-.38-.6-.25-1.13-.6-1.55-1.03-.43-.44-.76-.94-1-1.52-.22-.58-.33-1.18-.33-1.82 0-.65.1-1.27.33-1.85.22-.6.55-1.1.97-1.54.43-.43.94-.78 1.55-1.04.6-.26 1.28-.4 2.04-.4.75 0 1.42.14 2.02.4.6.26 1.1.6 1.52 1.04.42.44.73.94.95 1.52.22.58.33 1.18.33 1.8v.44c-.02.15-.03.26-.06.36h-7.15c.04.36.13.7.27.97s.32.5.55.7c.2.2.46.37.74.47.3.1.58.16.9.16.46 0 .9-.1 1.32-.34.42-.24.7-.55.86-.92l2.03.56c-.34.7-.9 1.3-1.64 1.74-.73.46-1.62.68-2.66.68zm2.4-5.58c-.06-.7-.3-1.25-.77-1.67-.45-.4-1-.62-1.65-.62-.32 0-.6.06-.9.17-.27.1-.5.27-.72.47-.2.2-.4.44-.52.72-.14.3-.22.6-.24.94h4.8z"/></g></svg>