<svg xmlns="http://www.w3.org/2000/svg" width="132" height="56" viewBox="0 0 132 56"><path d="M26.85 40.15l-.42-.98-.8.8c.24.22.47.45.7.7l.52-.52zm.43 1l-.23.22.58.6-.35-.83zM26 38.17l-.43-1-1.35 1.36.7.7L26 38.2zm-.85-1.98l-.43-1-1.9 1.92.7.7 1.63-1.62zm-1.67-1.16l-.87.02h-.55l-.65.64.7.7 1.38-1.36zm-2.73-.1h-.12c.02 0 .04.03.07.06l.05-.06zm27.4-7.5l4.07-4.05c.14-.6.24-1.2.3-1.83l-5.43 5.4 1.06.47zm1 .43l.62.27c.67-.78 1.23-1.64 1.66-2.55l-2.28 2.27zm-3.05-1.3l6.43-6.44c-.02-.44-.06-.86-.13-1.28l-7.28 7.28.98.43zm-1.97-.86l8.02-8.02c-.1-.37-.2-.72-.34-1.07l-8.66 8.68 1 .43zm-1.98-.85l9.23-9.23c-.15-.3-.32-.62-.5-.9l-9.72 9.7 1 .43zM40.17 24l10.15-10.14c-.2-.27-.4-.53-.64-.78l-10.5 10.5 1 .42zm-1.97-.85L49 12.35l-.76-.65L37.2 22.73l1 .42zm-1.26-1.57L47.42 11.1c-.3-.2-.58-.37-.88-.53l-9.58 9.58v.55c0 .3 0 .6-.02.88zm-.1-2.74l8.78-8.72c-.35-.15-.72-.28-1.1-.4l-7.88 7.9c.1.4.16.82.2 1.22zm-.5-2.33l7.1-7.07c-.4-.08-.82-.15-1.24-.2l-6.22 6.23c.14.35.26.7.37 1.05zm-.78-2.02l5.28-5.3c-.56.02-1.12.08-1.67.17l-4.1 4.2.5.93zm-1.04-1.8l2.9-2.9c-1.3.45-2.5 1.1-3.57 1.98.24.3.46.6.67.92zm16.56 18.28l-18.2 18.2s0 .02-.03.03c-.58.57-1.5.57-2.06 0L12.52 30.96c-.05-.05-.1-.1-.13-.15-2.57-2.6-4.15-6.16-4.15-10.1 0-7.93 6.43-14.36 14.36-14.36 3.5 0 6.72 1.26 9.22 3.34 2.56-2.16 5.8-3.4 9.26-3.4 7.93 0 14.36 6.44 14.36 14.37 0 3.94-1.6 7.62-4.36 10.3zm-9.96-3.4l-6.46-2.78c-.32-.14-.57-.38-.72-.67-.15-.28-.2-.62-.13-.96.1-.4.17-.8.2-1.2.05-.4.07-.82.07-1.24 0-1.52-.3-3-.85-4.36-1.76-4.2-5.84-7.1-10.6-7.1-6.34 0-11.48 5.13-11.48 11.46 0 6.33 5.14 11.46 11.47 11.46.87 0 1.73-.1 2.55-.28.68-.15 1.38.2 1.65.84l5.55 12.88L47.6 30.35l-6.48-2.78zm29.8 5.2c-.8 0-1.55-.1-2.3-.36-.73-.25-1.37-.6-1.9-1.06l.88-1.48c.57.4 1.12.7 1.65.9.54.2 1.07.3 1.6.3.47 0 .84-.07 1.12-.25.27-.17.4-.42.4-.75s-.16-.57-.48-.72c-.32-.16-.84-.33-1.56-.53-.6-.17-1.1-.33-1.54-.48-.42-.16-.76-.33-1.02-.52-.26-.2-.45-.42-.56-.67-.12-.26-.18-.56-.18-.92 0-.46.1-.88.27-1.26.2-.37.45-.7.78-.96.33-.27.72-.47 1.16-.6.44-.15.92-.22 1.44-.22.7 0 1.34.1 1.95.3.6.2 1.16.52 1.67.97l-.96 1.43c-.47-.35-.92-.6-1.37-.78-.44-.16-.88-.24-1.3-.24-.4 0-.75.08-1.02.24-.27.17-.4.43-.4.8 0 .16.03.3.1.4.06.1.16.2.3.3.14.07.33.15.56.23l.86.25c.64.16 1.18.33 1.64.5.45.16.82.34 1.1.56.3.22.5.46.65.74.13.28.2.6.2 1 0 .9-.34 1.62-1 2.15-.68.5-1.6.77-2.74.77zm9.54 0c-.75 0-1.43-.12-2.03-.38-.6-.26-1.1-.6-1.53-1.05-.42-.44-.74-.95-.96-1.53-.23-.57-.34-1.18-.34-1.82 0-.65.1-1.26.34-1.84.22-.57.54-1.08.96-1.52.42-.45.93-.8 1.53-1.06s1.28-.38 2.03-.38c.75 0 1.43.12 2.02.38.6.26 1.1.6 1.52 1.06.42.44.74.95.96 1.52.22.58.34 1.2.34 1.84 0 .64-.12 1.25-.34 1.82-.22.58-.54 1.1-.95 1.53-.4.44-.9.8-1.5 1.05-.6.26-1.3.4-2.04.4zM78.04 28c0 .4.06.8.18 1.12.13.34.3.63.52.88.2.25.47.44.77.57.3.14.62.2.96.2.34 0 .66-.06.95-.2.3-.13.56-.32.78-.57.22-.25.4-.54.5-.88.14-.35.2-.72.2-1.14 0-.4-.06-.77-.2-1.1-.1-.35-.28-.65-.5-.9-.22-.24-.47-.43-.77-.57-.28-.14-.6-.2-.94-.2-.34 0-.66.06-.95.2-.3.14-.55.34-.76.6-.22.23-.4.53-.52.87-.12.34-.18.7-.18 1.1zm11.67 4.8c-.94 0-1.67-.3-2.16-.93-.5-.6-.74-1.52-.74-2.72v-5.8h2.36v5.3c0 1.4.52 2.13 1.54 2.13.46 0 .9-.14 1.33-.42.43-.28.78-.7 1.05-1.26v-5.75h2.37v6.54c0 .25.04.43.13.53.1.1.23.17.44.18v2c-.24.06-.44.1-.6.1l-.43.02c-.43 0-.78-.1-1.04-.3-.27-.2-.42-.45-.47-.8l-.06-.74c-.42.64-.94 1.12-1.6 1.43-.64.3-1.35.47-2.13.47zm13.6-7.4c-.7.02-1.35.15-1.92.42-.56.26-.97.66-1.22 1.2v5.6H97.8v-9.27h2.17v1.98c.17-.3.36-.6.58-.84.23-.26.47-.48.73-.67.26-.2.52-.34.78-.44.27-.1.52-.15.77-.15h.3l.18.03v2.15zm.3 2.58c0-.64.1-1.26.33-1.83.22-.58.54-1.1.97-1.52.42-.43.93-.78 1.53-1.04s1.28-.38 2.03-.38c1.02 0 1.88.2 2.6.65.7.43 1.24 1 1.6 1.7l-2.32.72c-.2-.34-.47-.6-.8-.8-.33-.17-.7-.26-1.1-.26-.34 0-.65.06-.95.2-.3.13-.56.32-.78.56-.2.24-.38.53-.5.87-.13.35-.2.72-.2 1.13 0 .42.07.8.2 1.14.13.34.3.63.52.88.22.25.48.44.77.57.3.14.62.2.95.2.42 0 .8-.1 1.17-.3.36-.22.6-.48.75-.8l2.3.72c-.3.7-.83 1.28-1.56 1.73-.72.45-1.6.67-2.62.67-.75 0-1.43-.13-2.03-.4-.6-.25-1.1-.6-1.54-1.04-.4-.44-.74-.95-.97-1.54-.23-.6-.34-1.2-.34-1.84zm14.73 4.8c-.74 0-1.4-.12-2-.37-.6-.26-1.12-.6-1.54-1.04-.44-.44-.77-.94-1-1.52-.22-.58-.34-1.2-.34-1.82 0-.66.1-1.28.34-1.87.22-.58.54-1.1.97-1.53.42-.45.94-.8 1.54-1.06.62-.26 1.3-.38 2.05-.38.76 0 1.43.12 2.02.38.6.26 1.1.6 1.52 1.05.4.44.73.95.95 1.53.2.57.32 1.17.32 1.8v.44c0 .14-.03.26-.05.35h-7.15c.03.37.12.7.26.98s.33.52.55.72c.22.2.48.35.76.46.28.1.58.16.88.16.47 0 .92-.12 1.34-.35.4-.23.7-.54.85-.92l2.04.57c-.34.7-.88 1.3-1.63 1.74-.74.44-1.63.67-2.67.67zm2.4-5.57c-.05-.7-.3-1.26-.76-1.68-.46-.42-1-.63-1.65-.63-.32 0-.62.05-.9.16-.27.1-.52.27-.73.47-.22.2-.4.44-.53.72-.13.28-.2.6-.24.94h4.8zM71.7 15.77c-.75 0-1.43-.13-2.03-.4-.6-.25-1.1-.6-1.53-1.04-.4-.44-.73-.95-.96-1.53-.22-.57-.33-1.17-.33-1.8 0-.66.1-1.27.33-1.85.23-.58.55-1.1.96-1.53.42-.44.93-.8 1.53-1.05.6-.26 1.28-.4 2.03-.4.76 0 1.43.14 2.02.4.6.26 1.1.6 1.52 1.05.42.44.74.95.97 1.53.2.58.32 1.2.32 1.84 0 .63-.1 1.23-.33 1.8-.24.6-.56 1.1-.97 1.54-.4.44-.92.8-1.52 1.05s-1.26.38-2.02.38zm-2.42-4.8c0 .42.07.8.2 1.13.1.35.28.64.5.9.22.23.47.42.77.56.3.14.6.2.95.2.34 0 .66-.06.96-.2.3-.14.55-.33.76-.57.22-.26.4-.56.52-.9.12-.34.18-.72.18-1.13 0-.4-.06-.77-.18-1.1-.13-.35-.3-.65-.52-.9-.2-.24-.47-.43-.76-.57-.3-.14-.62-.2-.96-.2-.34 0-.66.07-.95.2-.3.15-.55.34-.77.6-.22.24-.4.53-.5.88-.13.34-.2.7-.2 1.1zm14.4 4.8c-.74 0-1.37-.16-1.9-.5-.55-.3-.98-.75-1.28-1.3v5.4H78.1V6.33h2.08v1.6c.34-.55.78-.98 1.32-1.3.54-.3 1.17-.46 1.87-.46.63 0 1.2.13 1.73.38.53.26 1 .6 1.37 1.03.38.42.68.92.9 1.5.22.6.33 1.2.33 1.85 0 .68-.1 1.3-.3 1.9-.2.58-.48 1.1-.84 1.53-.36.44-.8.78-1.28 1.03-.5.25-1.04.38-1.63.38zm-.8-2.02c.35 0 .68-.07.98-.23.3-.15.56-.36.77-.6.22-.27.38-.57.5-.92.12-.33.18-.68.18-1.05 0-.4-.07-.75-.2-1.08-.12-.34-.3-.63-.53-.88-.23-.26-.5-.45-.82-.6-.3-.13-.65-.2-1-.2-.23 0-.46.04-.7.1-.24.1-.45.2-.65.34s-.38.3-.54.5c-.16.18-.28.4-.36.6v2.2c.2.52.53.95.97 1.3.43.35.9.52 1.4.52zm10.74 2.02c-.75 0-1.42-.13-2.02-.38-.6-.25-1.1-.6-1.53-1.04-.43-.43-.75-.94-.98-1.52-.23-.57-.35-1.18-.35-1.82 0-.66.1-1.28.34-1.86.22-.58.55-1.1.97-1.54.42-.44.94-.8 1.54-1.05.6-.26 1.3-.4 2.04-.4.77 0 1.44.14 2.04.4.6.26 1.1.6 1.5 1.04.43.45.75.96.97 1.53.23.58.33 1.18.33 1.8v.45c0 .14-.03.26-.05.35h-7.15c.04.37.12.7.26.97.14.3.32.53.54.73.23.2.48.35.76.46.28.1.58.15.88.15.48 0 .92-.12 1.34-.35.42-.23.7-.53.85-.9l2.03.56c-.34.7-.88 1.28-1.63 1.74-.75.45-1.64.68-2.67.68zm2.4-5.6c-.06-.68-.32-1.24-.77-1.66-.45-.4-1-.62-1.65-.62-.32 0-.62.05-.9.16-.27.12-.5.27-.73.47-.2.2-.38.44-.52.73-.13.28-.2.6-.24.93H96zm12.48 5.42h-2.36v-5.2c0-.74-.13-1.28-.4-1.62-.25-.34-.6-.5-1.07-.5-.24 0-.48.03-.72.13-.25.1-.48.24-.7.4-.22.18-.42.38-.6.62-.17.23-.3.5-.38.77v5.4h-2.37V6.34h2.14v1.72c.34-.6.83-1.05 1.48-1.38.65-.33 1.38-.5 2.2-.5.57 0 1.04.1 1.4.32.37.2.65.5.85.83.2.34.34.73.42 1.17.07.43.1.87.1 1.32v5.78zm-41.1 21.1h2.38v9.92c0 .34.08.6.25.8.17.18.4.28.7.28.15 0 .3-.03.48-.07.17-.05.33-.1.5-.18l.3 1.8c-.3.16-.7.27-1.1.36-.43.1-.82.13-1.16.13-.74 0-1.3-.2-1.72-.6-.4-.4-.6-.95-.6-1.68V36.7zm9.9 13.06c-.75 0-1.43-.12-2.03-.38-.6-.26-1.1-.6-1.53-1.06-.42-.44-.74-.95-.96-1.52-.22-.58-.34-1.2-.34-1.82 0-.65.12-1.27.34-1.84.22-.58.54-1.1.96-1.53.42-.43.93-.78 1.53-1.04s1.28-.4 2.03-.4c.75 0 1.43.14 2.02.4.6.26 1.1.6 1.52 1.05.42.45.74.96.96 1.54.23.57.34 1.2.34 1.84 0 .63-.1 1.24-.34 1.82-.22.57-.54 1.08-.95 1.52-.4.45-.92.8-1.52 1.06s-1.27.38-2.02.38zm-2.42-4.78c0 .4.06.78.2 1.12.1.33.28.62.5.87.22.25.47.44.77.58.3.13.6.2.95.2.34 0 .66-.07.95-.2.3-.14.55-.33.77-.58.22-.25.4-.54.5-.88.14-.35.2-.73.2-1.14 0-.4-.06-.77-.2-1.12-.1-.34-.28-.63-.5-.88-.22-.25-.47-.44-.77-.57-.3-.15-.6-.22-.95-.22-.34 0-.66.07-.95.22-.3.14-.55.33-.77.58-.22.25-.4.54-.5.88-.14.34-.2.7-.2 1.12zm11 4.6l-3.4-9.25h2.43l2.34 7.33 2.37-7.33h2.23l-3.4 9.26h-2.57zm11.18.18c-.74 0-1.4-.12-2-.38-.6-.25-1.13-.6-1.55-1.03-.43-.44-.76-.94-1-1.52-.22-.58-.33-1.18-.33-1.82 0-.65.1-1.27.33-1.85.22-.6.55-1.1.97-1.54.43-.43.94-.78 1.55-1.04.6-.26 1.28-.4 2.04-.4.75 0 1.42.14 2.02.4.6.26 1.1.6 1.52 1.04.42.44.73.94.95 1.52.22.58.33 1.18.33 1.8v.44c-.02.15-.03.26-.06.36h-7.15c.04.36.13.7.27.97s.32.5.55.7c.2.2.46.37.74.47.3.1.58.16.9.16.46 0 .9-.1 1.32-.34.42-.24.7-.55.86-.92l2.03.56c-.34.7-.9 1.3-1.64 1.74-.73.46-1.62.68-2.66.68zm2.4-5.58c-.06-.7-.3-1.25-.77-1.67-.45-.4-1-.62-1.65-.62-.32 0-.6.06-.9.17-.27.1-.5.27-.72.47-.2.2-.4.44-.52.72-.14.3-.22.6-.24.94h4.8z" fill="#960042" fill-rule="evenodd"/></svg>