<?xml version="1.0" encoding="UTF-8"?>
<svg width="176px" height="88px" viewBox="0 0 176 88" version="1.1" xmlns="http://www.w3.org/2000/svg" xmlns:xlink="http://www.w3.org/1999/xlink">
    <!-- Generator: Sketch 46 (44423) - http://www.bohemiancoding.com/sketch -->
    <title>Group</title>
    <desc>Created with Sketch.</desc>
    <defs></defs>
    <g id="Logo" stroke="none" stroke-width="1" fill="none" fill-rule="evenodd">
        <g id="Open-Source-Love---Logo-variations" transform="translate(-244.000000, -500.000000)">
            <g id="Group" transform="translate(236.000000, 488.000000)">
                <rect id="Rectangle" opacity="0.200000003" x="0" y="0" width="199" height="112"></rect>
                <g>
                    <path d="M55.6308199,23.3261895 C60.3235741,18.4895355 66.8924625,15.4839808 74.1632213,15.4839808 C88.4240425,15.4839808 99.9847223,27.0465472 99.9847223,41.3096958 C99.9847223,48.6212322 96.9468476,55.2231191 92.0646462,59.921614 L55.6223688,96.3638914 L19.1052519,59.8467744 L55.6283284,23.3236979 L55.6308199,23.3261895 Z" id="Combined-Shape" stroke="#960042" stroke-width="5.79310345" fill="#FFFFFF" stroke-linecap="round" stroke-linejoin="round"></path>
                    <path d="M27.8345238,30.0771645 L91.8345238,30.0771645 L91.8345238,32.0771645 L27.8345238,32.0771645 L27.8345238,30.0771645 Z M27.8345238,34.0771645 L99.8345238,34.0771645 L99.8345238,36.0771645 L27.8345238,36.0771645 L27.8345238,34.0771645 Z M27.8345238,38.0771645 L99.8345238,38.0771645 L99.8345238,40.0771645 L27.8345238,40.0771645 L27.8345238,38.0771645 Z M27.8345238,42.0771645 L103.834524,42.0771645 L103.834524,44.0771645 L27.8345238,44.0771645 L27.8345238,42.0771645 Z M27.8345238,46.0771645 L104.834524,46.0771645 L104.834524,48.0771645 L27.8345238,48.0771645 L27.8345238,46.0771645 Z M27.8345238,50.0771645 L104.834524,50.0771645 L104.834524,52.0771645 L27.8345238,52.0771645 L27.8345238,50.0771645 Z M27.8345238,54.0771645 L104.834524,54.0771645 L104.834524,56.0771645 L27.8345238,56.0771645 L27.8345238,54.0771645 Z M27.8345238,58.0771645 L101.834524,58.0771645 L101.834524,60.0771645 L27.8345238,60.0771645 L27.8345238,58.0771645 Z M27.8345238,62.0771645 L99.8345238,62.0771645 L99.8345238,64.0771645 L27.8345238,64.0771645 L27.8345238,62.0771645 Z M26.8345238,66.0771645 L98.8345238,66.0771645 L98.8345238,68.0771645 L26.8345238,68.0771645 L26.8345238,66.0771645 Z M25.2989899,70.2401154 L93.2989899,70.2401154 L93.2989899,72.2401154 L25.2989899,72.2401154 L25.2989899,70.2401154 Z" id="Combined-Shape" fill="#960042" transform="translate(65.066757, 51.158640) rotate(-45.000000) translate(-65.066757, -51.158640) "></path>
                    <path d="M62.4587348,46.8987755 L92.2526182,59.7359588 L55.7295417,96.2590353 L42.9457939,66.5891706 C41.103748,67.0061507 39.1869945,67.2262813 37.2188183,67.2262813 C22.9556698,67.2262813 11.3931033,55.6656015 11.3931033,41.4047803 C11.3931033,27.1439591 22.9556698,15.5832793 37.2188183,15.5832793 C51.4819669,15.5832793 63.0445334,27.1439591 63.0445334,41.4047803 C63.0445334,43.2901301 62.8424414,45.1282865 62.4587348,46.8987755 L62.4587348,46.8987755 Z" id="Combined-Shape" stroke="#960042" stroke-width="5.79310345" fill="#FFFFFF" stroke-linecap="round" stroke-linejoin="round"></path>
                    <rect id="Rectangle" opacity="0.200000003" x="0" y="0" width="112" height="112"></rect>
                </g>
                <path d="M123.582477,80.4221787 C122.698372,80.4221787 121.834373,80.2816008 120.990454,80.0004408 C120.146536,79.7192807 119.423187,79.3176296 118.820388,78.7954753 L119.825048,77.1085237 C120.468034,77.5637351 121.094266,77.9084857 121.703763,78.1427857 C122.31326,78.3770857 122.919399,78.4942339 123.522198,78.4942339 C124.058019,78.4942339 124.479972,78.3938212 124.78807,78.1929926 C125.096167,77.992164 125.250213,77.704314 125.250213,77.329434 C125.250213,76.954554 125.069376,76.6800924 124.707697,76.506041 C124.346017,76.3319895 123.756623,76.131164 122.939495,75.9035582 C122.256323,75.7161182 121.673626,75.5353752 121.191386,75.3613238 C120.709147,75.1872724 120.320682,74.9897939 120.025981,74.7688824 C119.731279,74.547971 119.516953,74.293592 119.382998,74.0057377 C119.249043,73.7178834 119.182066,73.3731328 119.182066,72.9714757 C119.182066,72.4359328 119.28588,71.9539514 119.493511,71.5255171 C119.701141,71.0970828 119.99249,70.7322497 120.367565,70.4310068 C120.74264,70.129764 121.181337,69.8988146 121.68367,69.7381517 C122.186002,69.5774888 122.731862,69.4971586 123.321266,69.4971586 C124.111602,69.4971586 124.851695,69.6109598 125.541565,69.8385655 C126.231435,70.0661712 126.864364,70.4343514 127.440372,70.9431172 L126.355339,72.5698205 C125.819518,72.1681634 125.300449,71.8736192 124.798116,71.6861792 C124.295784,71.4987392 123.796807,71.4050206 123.301173,71.4050206 C122.845724,71.4050206 122.463957,71.4987392 122.15586,71.6861792 C121.847763,71.8736192 121.693716,72.1748575 121.693716,72.5899033 C121.693716,72.7773433 121.730554,72.9313095 121.804229,73.0518067 C121.877904,73.1723038 121.995114,73.2794108 122.15586,73.3731308 C122.316606,73.4668508 122.527583,73.5572223 122.788796,73.644248 C123.050009,73.7312737 123.374846,73.8216453 123.763316,73.9153653 C124.486675,74.1028053 125.106209,74.2902425 125.621937,74.4776825 C126.137666,74.6651225 126.559619,74.8793364 126.887809,75.1203307 C127.216,75.361325 127.457116,75.6391337 127.611165,75.9537651 C127.765213,76.2683966 127.842236,76.6466181 127.842236,77.0884409 C127.842236,78.119361 127.460469,78.9327045 126.696924,79.528496 C125.933378,80.1242874 124.89524,80.4221787 123.582477,80.4221787 Z M134.4529,80.4221787 C133.595586,80.4221787 132.825354,80.2749066 132.142182,79.980358 C131.459009,79.6858094 130.879661,79.2875054 130.40412,78.7854339 C129.928578,78.2833625 129.563555,77.7043154 129.30904,77.0482754 C129.054525,76.3922354 128.927269,75.7027343 128.927269,74.9797514 C128.927269,74.2433799 129.054525,73.5471846 129.30904,72.8911446 C129.563555,72.2351046 129.928578,71.6560576 130.40412,71.1539861 C130.879661,70.6519147 131.459009,70.2536106 132.142182,69.959062 C132.825354,69.6645135 133.595586,69.5172414 134.4529,69.5172414 C135.310214,69.5172414 136.077097,69.6645135 136.753572,69.959062 C137.430046,70.2536106 138.006046,70.6519147 138.481587,71.1539861 C138.957129,71.6560576 139.322152,72.2351046 139.576667,72.8911446 C139.831182,73.5471846 139.958438,74.2433799 139.958438,74.9797514 C139.958438,75.7027343 139.831182,76.3922354 139.576667,77.0482754 C139.322152,77.7043154 138.960478,78.2833625 138.491634,78.7854339 C138.02279,79.2875054 137.446791,79.6858094 136.763618,79.980358 C136.080446,80.2749066 135.310214,80.4221787 134.4529,80.4221787 Z M131.700131,74.9797514 C131.700131,75.4483514 131.770457,75.8734322 131.91111,76.2550065 C132.051763,76.6365808 132.245995,76.967943 132.493813,77.249103 C132.74163,77.530263 133.032979,77.747824 133.367867,77.9017926 C133.702755,78.0557612 134.06443,78.1327443 134.4529,78.1327443 C134.841371,78.1327443 135.203045,78.0557612 135.537933,77.9017926 C135.872821,77.747824 136.16417,77.530263 136.411987,77.249103 C136.659805,76.967943 136.854037,76.6332337 136.99469,76.2449651 C137.135343,75.8566965 137.205669,75.4282687 137.205669,74.9596686 C137.205669,74.5044572 137.135343,74.0827235 136.99469,73.6944549 C136.854037,73.3061863 136.659805,72.9714771 136.411987,72.6903171 C136.16417,72.409157 135.872821,72.191596 135.537933,72.0376274 C135.203045,71.8836589 134.841371,71.8066757 134.4529,71.8066757 C134.06443,71.8066757 133.702755,71.887006 133.367867,72.0476688 C133.032979,72.2083317 132.74163,72.4292398 132.493813,72.7103998 C132.245995,72.9915598 132.051763,73.3262691 131.91111,73.7145377 C131.770457,74.1028063 131.700131,74.52454 131.700131,74.9797514 Z M144.981738,80.4221787 C143.8967,80.4221787 143.072887,80.074081 142.510274,79.3778753 C141.947662,78.6816695 141.66636,77.650765 141.66636,76.2851306 L141.66636,69.6979862 L144.358849,69.6979862 L144.358849,75.7027307 C144.358849,77.3227479 144.941546,78.1327443 146.106958,78.1327443 C146.629383,78.1327443 147.135057,77.975431 147.623994,77.6607995 C148.112931,77.3461681 148.511443,76.8675338 148.81954,76.2248824 L148.81954,69.6979862 L151.512029,69.6979862 L151.512029,77.1286064 C151.512029,77.4097665 151.562262,77.610592 151.662728,77.7310892 C151.763195,77.8515863 151.927288,77.9185282 152.155012,77.9319167 L152.155012,80.2213511 C151.887101,80.2749054 151.662729,80.3083763 151.481889,80.3217649 C151.30105,80.3351534 151.136957,80.3418476 150.989606,80.3418476 C150.507367,80.3418476 150.115553,80.2313936 149.814153,80.0104821 C149.512754,79.7895707 149.335266,79.4849853 149.281684,79.0967167 L149.221404,78.2532409 C148.75256,78.9762237 148.14977,79.5184528 147.413016,79.8799442 C146.676261,80.2414357 145.865844,80.4221787 144.981738,80.4221787 Z M160.453504,72.0275861 C159.636377,72.0409746 158.906331,72.198288 158.263345,72.4995309 C157.62036,72.8007737 157.15822,73.2526312 156.876914,73.855117 L156.876914,80.2213511 L154.184425,80.2213511 L154.184425,69.6979862 L156.655889,69.6979862 L156.655889,71.947255 C156.843427,71.5857636 157.06445,71.2610956 157.318965,70.9732413 C157.57348,70.685387 157.848084,70.434355 158.142786,70.2201379 C158.437488,70.0059207 158.735534,69.8419132 159.036934,69.7281103 C159.338333,69.6143075 159.629682,69.5574069 159.910988,69.5574069 L160.242526,69.5574069 C160.316201,69.5574069 160.386527,69.5641011 160.453504,69.5774897 L160.453504,72.0275861 Z M160.774996,74.9596686 C160.774996,74.2232972 160.902251,73.5271019 161.156766,72.8710619 C161.411282,72.2150218 161.779653,71.6393219 162.261893,71.1439447 C162.744132,70.6485676 163.326829,70.2536106 164.010001,69.959062 C164.693173,69.6645135 165.463405,69.5172414 166.320719,69.5172414 C167.472736,69.5172414 168.453944,69.7649262 169.264374,70.2603034 C170.074804,70.7556806 170.680942,71.4050166 171.082809,72.2083309 L168.450599,73.0116412 C168.222875,72.6233726 167.92148,72.3254813 167.546405,72.1179585 C167.17133,71.9104356 166.756075,71.8066757 166.300626,71.8066757 C165.912156,71.8066757 165.550482,71.8836589 165.215593,72.0376274 C164.880705,72.191596 164.589356,72.4058099 164.341539,72.6802757 C164.093722,72.9547414 163.899489,73.2861036 163.758836,73.6743722 C163.618183,74.0626408 163.547858,74.4910686 163.547858,74.9596686 C163.547858,75.4282687 163.621532,75.8566965 163.768883,76.2449651 C163.916234,76.6332337 164.113815,76.967943 164.361632,77.249103 C164.60945,77.530263 164.900798,77.747824 165.235687,77.9017926 C165.570575,78.0557612 165.925551,78.1327443 166.300626,78.1327443 C166.782866,78.1327443 167.22826,78.012249 167.636824,77.7712547 C168.045388,77.5302604 168.330039,77.2357162 168.490785,76.8876134 L171.122995,77.6909237 C170.761315,78.494238 170.165223,79.1502681 169.3347,79.6590339 C168.504177,80.1677996 167.506224,80.4221787 166.340813,80.4221787 C165.483498,80.4221787 164.713267,80.2749066 164.030094,79.980358 C163.346922,79.6858094 162.764225,79.2875054 162.281986,78.7854339 C161.799746,78.2833625 161.428026,77.7009683 161.166813,77.038234 C160.9056,76.3754997 160.774996,75.6826515 160.774996,74.9596686 Z M177.55282,80.4221787 C176.708901,80.4221787 175.945367,80.2782537 175.262195,79.9903994 C174.579022,79.7025451 173.996325,79.3109352 173.514086,78.8155581 C173.031847,78.3201809 172.660126,77.744481 172.398913,77.0884409 C172.1377,76.4324009 172.007096,75.7428998 172.007096,75.0199169 C172.007096,74.2701569 172.134352,73.5639203 172.388867,72.901186 C172.643382,72.2384517 173.011754,71.6560576 173.493993,71.1539861 C173.976232,70.6519147 174.562278,70.2536106 175.252148,69.959062 C175.942018,69.6645135 176.715599,69.5172414 177.572913,69.5172414 C178.430227,69.5172414 179.19711,69.6645135 179.873585,69.959062 C180.550059,70.2536106 181.126059,70.6485676 181.6016,71.1439447 C182.077142,71.6393219 182.438816,72.2150218 182.686633,72.8710619 C182.93445,73.5271019 183.058357,74.2099088 183.058357,74.9195031 C183.058357,75.0935546 183.055009,75.2609092 183.048311,75.4215721 C183.041613,75.5822349 183.024869,75.7161186 182.998078,75.8232272 L174.860331,75.8232272 C174.900517,76.2382729 175.000982,76.6064531 175.161729,76.9277789 C175.322475,77.2491046 175.530103,77.5235662 175.784618,77.7511719 C176.039133,77.9787776 176.327133,78.1528265 176.648626,78.2733236 C176.970119,78.3938208 177.305002,78.4540684 177.653286,78.4540684 C178.189107,78.4540684 178.694781,78.3235318 179.170323,78.0624547 C179.645864,77.8013775 179.970701,77.456627 180.144843,77.0281927 L182.455561,77.6708409 C182.067091,78.4741552 181.447557,79.1335325 180.59694,79.6489925 C179.746324,80.1644525 178.731627,80.4221787 177.55282,80.4221787 Z M180.285495,74.0760273 C180.218518,73.2861016 179.927169,72.653501 179.411441,72.1782067 C178.895713,71.7029124 178.269481,71.4652688 177.532727,71.4652688 C177.171047,71.4652688 176.832815,71.5288636 176.51802,71.656055 C176.203225,71.7832465 175.925272,71.9606424 175.684152,72.1882481 C175.443032,72.4158538 175.245451,72.6903154 175.091402,73.0116412 C174.937354,73.3329669 174.846935,73.6877587 174.820144,74.0760273 L180.285495,74.0760273 Z M124.466578,61.1118338 C123.609264,61.1118338 122.839032,60.9645618 122.15586,60.6700132 C121.472688,60.3754646 120.893339,59.9771605 120.417798,59.4750891 C119.942256,58.9730177 119.577234,58.3939706 119.322718,57.7379306 C119.068203,57.0818906 118.940948,56.3923895 118.940948,55.6694066 C118.940948,54.9330351 119.068203,54.2368398 119.322718,53.5807998 C119.577234,52.9247598 119.942256,52.3457127 120.417798,51.8436413 C120.893339,51.3415698 121.472688,50.9432658 122.15586,50.6487172 C122.839032,50.3541686 123.609264,50.2068966 124.466578,50.2068966 C125.323893,50.2068966 126.090775,50.3541686 126.76725,50.6487172 C127.443725,50.9432658 128.019724,51.3415698 128.495265,51.8436413 C128.970807,52.3457127 129.33583,52.9247598 129.590345,53.5807998 C129.84486,54.2368398 129.972116,54.9330351 129.972116,55.6694066 C129.972116,56.3923895 129.84486,57.0818906 129.590345,57.7379306 C129.33583,58.3939706 128.974156,58.9730177 128.505312,59.4750891 C128.036468,59.9771605 127.460469,60.3754646 126.777297,60.6700132 C126.094124,60.9645618 125.323893,61.1118338 124.466578,61.1118338 Z M121.71381,55.6694066 C121.71381,56.1380066 121.784135,56.5630874 121.924788,56.9446617 C122.065441,57.326236 122.259674,57.6575982 122.507491,57.9387582 C122.755308,58.2199182 123.046657,58.4374792 123.381545,58.5914478 C123.716434,58.7454164 124.078108,58.8223995 124.466578,58.8223995 C124.855049,58.8223995 125.216723,58.7454164 125.551611,58.5914478 C125.8865,58.4374792 126.177848,58.2199182 126.425666,57.9387582 C126.673483,57.6575982 126.867715,57.3228889 127.008368,56.9346203 C127.149022,56.5463517 127.219347,56.1179238 127.219347,55.6493238 C127.219347,55.1941124 127.149022,54.7723787 127.008368,54.3841101 C126.867715,53.9958415 126.673483,53.6611322 126.425666,53.3799722 C126.177848,53.0988122 125.8865,52.8812512 125.551611,52.7272826 C125.216723,52.573314 124.855049,52.4963309 124.466578,52.4963309 C124.078108,52.4963309 123.716434,52.5766611 123.381545,52.737324 C123.046657,52.8979868 122.755308,53.118895 122.507491,53.400055 C122.259674,53.681215 122.065441,54.0159243 121.924788,54.4041929 C121.784135,54.7924614 121.71381,55.2141951 121.71381,55.6694066 Z M138.08977,61.1118338 C137.259247,61.1118338 136.535898,60.9277437 135.919704,60.559558 C135.303509,60.1913723 134.821277,59.6926555 134.472993,59.0633926 L134.472993,65.1886336 L131.780504,65.1886336 L131.780504,50.3876414 L134.131409,50.3876414 L134.131409,52.1950895 C134.519879,51.5792152 135.022204,51.0938868 135.638399,50.7390896 C136.254594,50.3842925 136.964546,50.2068966 137.768278,50.2068966 C138.478242,50.2068966 139.134613,50.3508215 139.737412,50.6386758 C140.340211,50.9265301 140.859281,51.3147929 141.294636,51.8034758 C141.72999,52.2921586 142.071571,52.8678586 142.319389,53.5305929 C142.567206,54.1933272 142.691113,54.8928696 142.691113,55.6292411 C142.691113,56.3923897 142.577253,57.1086675 142.349529,57.7780961 C142.121805,58.4475247 141.803665,59.0299188 141.395102,59.525296 C140.986538,60.0206732 140.500957,60.4089359 139.938344,60.6900959 C139.375732,60.9712559 138.759546,61.1118338 138.08977,61.1118338 Z M137.185576,58.8223995 C137.587442,58.8223995 137.959162,58.7353751 138.300748,58.5613236 C138.642335,58.3872722 138.933683,58.1529757 139.174803,57.8584271 C139.415922,57.5638785 139.603457,57.2224751 139.737412,56.8342065 C139.871368,56.4459379 139.938344,56.0442868 139.938344,55.6292411 C139.938344,55.1874182 139.86467,54.7757258 139.717319,54.3941515 C139.569968,54.0125772 139.365689,53.681215 139.104476,53.400055 C138.843264,53.118895 138.535171,52.8979868 138.180189,52.737324 C137.825207,52.5766611 137.440092,52.4963309 137.02483,52.4963309 C136.770315,52.4963309 136.509106,52.5398431 136.241195,52.6268688 C135.973284,52.7138945 135.725471,52.837737 135.497747,52.9983998 C135.270022,53.1590627 135.065744,53.3464999 134.884904,53.560717 C134.704064,53.7749342 134.566762,54.0092307 134.472993,54.2636136 L134.472993,56.7337927 C134.714113,57.3362784 135.082485,57.8349953 135.578119,58.2299581 C136.073754,58.624921 136.609568,58.8223995 137.185576,58.8223995 Z M149.402243,61.1118338 C148.558324,61.1118338 147.79479,60.9679088 147.111618,60.6800545 C146.428445,60.3922003 145.845748,60.0005904 145.363509,59.5052132 C144.88127,59.0098361 144.509549,58.4341361 144.248336,57.7780961 C143.987123,57.1220561 143.856519,56.432555 143.856519,55.7095721 C143.856519,54.9598121 143.983775,54.2535755 144.23829,53.5908412 C144.492805,52.9281069 144.861177,52.3457127 145.343416,51.8436413 C145.825655,51.3415698 146.411701,50.9432658 147.101571,50.6487172 C147.791441,50.3541686 148.565022,50.2068966 149.422336,50.2068966 C150.27965,50.2068966 151.046533,50.3541686 151.723008,50.6487172 C152.399482,50.9432658 152.975482,51.3382227 153.451023,51.8335999 C153.926565,52.3289771 154.288239,52.904677 154.536056,53.560717 C154.783874,54.2167571 154.90778,54.899564 154.90778,55.6091583 C154.90778,55.7832097 154.904432,55.9505644 154.897734,56.1112272 C154.891036,56.2718901 154.874292,56.4057738 154.847501,56.5128824 L146.709754,56.5128824 C146.74994,56.9279281 146.850405,57.2961083 147.011152,57.617434 C147.171898,57.9387598 147.379526,58.2132214 147.634041,58.4408271 C147.888556,58.6684328 148.176556,58.8424816 148.498049,58.9629788 C148.819542,59.0834759 149.154425,59.1437236 149.502709,59.1437236 C150.03853,59.1437236 150.544204,59.013187 151.019746,58.7521098 C151.495287,58.4910327 151.820124,58.1462821 151.994266,57.7178478 L154.304984,58.3604961 C153.916514,59.1638104 153.29698,59.8231877 152.446363,60.3386477 C151.595747,60.8541077 150.58105,61.1118338 149.402243,61.1118338 Z M152.134918,54.7656825 C152.067941,53.9757567 151.776592,53.3431562 151.260864,52.8678619 C150.745136,52.3925676 150.118904,52.154924 149.38215,52.154924 C149.02047,52.154924 148.682238,52.2185188 148.367443,52.3457102 C148.052648,52.4729017 147.774695,52.6502976 147.533575,52.8779033 C147.292455,53.105509 147.094874,53.3799706 146.940826,53.7012963 C146.786777,54.0226221 146.696358,54.3774139 146.669567,54.7656825 L152.134918,54.7656825 Z M166.340813,60.9110063 L163.648324,60.9110063 L163.648324,55.0066756 C163.648324,54.1631955 163.500975,53.5473305 163.206273,53.1590619 C162.911571,52.7707933 162.503014,52.5766619 161.980588,52.5766619 C161.712677,52.5766619 161.438073,52.6302154 161.156766,52.737324 C160.87546,52.8444326 160.610902,52.9950517 160.363085,53.189186 C160.115267,53.3833203 159.890896,53.6142697 159.689963,53.8820412 C159.48903,54.1498126 159.341681,54.4443568 159.247912,54.7656825 L159.247912,60.9110063 L156.555423,60.9110063 L156.555423,50.3876414 L158.986701,50.3876414 L158.986701,52.3356688 C159.375171,51.6662402 159.937775,51.1440938 160.67453,50.7692138 C161.411284,50.3943337 162.241795,50.2068966 163.166087,50.2068966 C163.822468,50.2068966 164.358281,50.3273919 164.773543,50.5683862 C165.188804,50.8093805 165.510293,51.1240072 165.738017,51.5122758 C165.965741,51.9005444 166.123136,52.3423606 166.210207,52.8377378 C166.297278,53.3331149 166.340813,53.8351788 166.340813,54.3439446 L166.340813,60.9110063 Z" id="Combined-Shape" fill="#960042"></path>
                <path d="M119.58393,84.871283 L122.276419,84.871283 L122.276419,96.1577927 C122.276419,96.5460613 122.370187,96.8472996 122.557724,97.0615168 C122.745262,97.2757339 123.013168,97.3828409 123.361452,97.3828409 C123.522199,97.3828409 123.699687,97.3560641 123.893922,97.3025098 C124.088157,97.2489556 124.272343,97.1820137 124.446485,97.1016823 L124.808163,99.1501235 C124.446483,99.324175 124.02453,99.4580587 123.542291,99.5517787 C123.060052,99.6454987 122.624703,99.692358 122.236233,99.692358 C121.392314,99.692358 120.739292,99.4681028 120.277146,99.0195856 C119.815,98.5710684 119.58393,97.9317737 119.58393,97.1016823 L119.58393,84.871283 Z M130.836124,99.7325235 C129.978809,99.7325235 129.208578,99.5852514 128.525405,99.2907028 C127.842233,98.9961542 127.262885,98.5978502 126.787343,98.0957788 C126.311802,97.5937073 125.946779,97.0146603 125.692264,96.3586202 C125.437748,95.7025802 125.310493,95.0130791 125.310493,94.2900962 C125.310493,93.5537248 125.437748,92.8575295 125.692264,92.2014895 C125.946779,91.5454494 126.311802,90.9664024 126.787343,90.4643309 C127.262885,89.9622595 127.842233,89.5639555 128.525405,89.2694069 C129.208578,88.9748583 129.978809,88.8275862 130.836124,88.8275862 C131.693438,88.8275862 132.460321,88.9748583 133.136795,89.2694069 C133.81327,89.5639555 134.389269,89.9622595 134.864811,90.4643309 C135.340352,90.9664024 135.705375,91.5454494 135.95989,92.2014895 C136.214405,92.8575295 136.341661,93.5537248 136.341661,94.2900962 C136.341661,95.0130791 136.214405,95.7025802 135.95989,96.3586202 C135.705375,97.0146603 135.343701,97.5937073 134.874857,98.0957788 C134.406014,98.5978502 133.830014,98.9961542 133.146842,99.2907028 C132.46367,99.5852514 131.693438,99.7325235 130.836124,99.7325235 Z M128.083355,94.2900962 C128.083355,94.7586962 128.15368,95.183777 128.294333,95.5653513 C128.434987,95.9469256 128.629219,96.2782878 128.877036,96.5594478 C129.124854,96.8406078 129.416202,97.0581689 129.751091,97.2121374 C130.085979,97.366106 130.447653,97.4430891 130.836124,97.4430891 C131.224594,97.4430891 131.586268,97.366106 131.921157,97.2121374 C132.256045,97.0581689 132.547393,96.8406078 132.795211,96.5594478 C133.043028,96.2782878 133.237261,95.9435785 133.377914,95.5553099 C133.518567,95.1670414 133.588892,94.7386135 133.588892,94.2700135 C133.588892,93.814802 133.518567,93.3930683 133.377914,93.0047998 C133.237261,92.6165312 133.043028,92.2818219 132.795211,92.0006619 C132.547393,91.7195019 132.256045,91.5019408 131.921157,91.3479723 C131.586268,91.1940037 131.224594,91.1170206 130.836124,91.1170206 C130.447653,91.1170206 130.085979,91.1973508 129.751091,91.3580136 C129.416202,91.5186765 129.124854,91.7395846 128.877036,92.0207446 C128.629219,92.3019046 128.434987,92.6366139 128.294333,93.0248825 C128.15368,93.4131511 128.083355,93.8348848 128.083355,94.2900962 Z M140.60142,99.5316959 L136.723432,89.008331 L139.496294,89.008331 L142.16869,97.3426754 L144.861179,89.008331 L147.392923,89.008331 L143.514934,99.5316959 L140.60142,99.5316959 Z M153.320417,99.7325235 C152.476499,99.7325235 151.712965,99.5885985 151.029792,99.3007442 C150.34662,99.0128899 149.763923,98.6212801 149.281684,98.1259029 C148.799444,97.6305257 148.427724,97.0548258 148.166511,96.3987858 C147.905298,95.7427457 147.774693,95.0532446 147.774693,94.3302617 C147.774693,93.5805017 147.901949,92.8742651 148.156464,92.2115308 C148.410979,91.5487965 148.779351,90.9664024 149.26159,90.4643309 C149.74383,89.9622595 150.329876,89.5639555 151.019746,89.2694069 C151.709616,88.9748583 152.483196,88.8275862 153.340511,88.8275862 C154.197825,88.8275862 154.964708,88.9748583 155.641182,89.2694069 C156.317657,89.5639555 156.893656,89.9589124 157.369198,90.4542896 C157.844739,90.9496667 158.206413,91.5253667 158.454231,92.1814067 C158.702048,92.8374467 158.825955,93.5202536 158.825955,94.229848 C158.825955,94.4038994 158.822606,94.571254 158.815908,94.7319169 C158.809211,94.8925798 158.792466,95.0264635 158.765675,95.133572 L150.627928,95.133572 C150.668115,95.5486178 150.76858,95.916798 150.929326,96.2381237 C151.090073,96.5594494 151.2977,96.833911 151.552216,97.0615168 C151.806731,97.2891225 152.09473,97.4631713 152.416223,97.5836684 C152.737716,97.7041656 153.072599,97.7644133 153.420883,97.7644133 C153.956705,97.7644133 154.462379,97.6338766 154.93792,97.3727995 C155.413462,97.1117223 155.738299,96.7669718 155.912441,96.3385375 L158.223159,96.9811857 C157.834688,97.7845 157.215154,98.4438773 156.364538,98.9593373 C155.513921,99.4747973 154.499224,99.7325235 153.320417,99.7325235 Z M156.053093,93.3863721 C155.986115,92.5964464 155.694767,91.9638459 155.179039,91.4885516 C154.66331,91.0132573 154.037079,90.7756137 153.300324,90.7756137 C152.938645,90.7756137 152.600413,90.8392084 152.285617,90.9663999 C151.970822,91.0935913 151.692869,91.2709872 151.45175,91.4985929 C151.21063,91.7261987 151.013049,92.0006603 150.859,92.321986 C150.704951,92.6433117 150.614533,92.9981036 150.587742,93.3863721 L156.053093,93.3863721 Z" id="Combined-Shape" fill="#960042"></path>
            </g>
        </g>
    </g>
</svg>